<?xml version="1.0" encoding="utf-8"?>
<!-- Generator: Adobe Illustrator 25.4.1, SVG Export Plug-In . SVG Version: 6.00 Build 0)  -->
<svg version="1.1" id="Layer_1" xmlns="http://www.w3.org/2000/svg" xmlns:xlink="http://www.w3.org/1999/xlink" x="0px" y="0px"
	 viewBox="0 0 20 14.97" style="enable-background:new 0 0 20 14.97;" xml:space="preserve">
<style type="text/css">
	.st0{fill:#0C272D;}
</style>
<path class="st0" d="M19.55,2.24H0.45c-0.08,0-0.14-0.06-0.14-0.14V0.71c0-0.08,0.06-0.14,0.14-0.14h19.1
	c0.08,0,0.14,0.06,0.14,0.14v1.38C19.69,2.17,19.63,2.24,19.55,2.24z"/>
<path class="st0" d="M19.55,8.41H0.45c-0.08,0-0.14-0.06-0.14-0.14V6.89c0-0.08,0.06-0.14,0.14-0.14h19.1
	c0.08,0,0.14,0.06,0.14,0.14v1.38C19.69,8.35,19.63,8.41,19.55,8.41z"/>
<path class="st0" d="M19.55,14.59l-19.1,0c-0.08,0-0.14-0.06-0.14-0.14v-1.38c0-0.08,0.06-0.14,0.14-0.14h19.1
	c0.08,0,0.14,0.06,0.14,0.14v1.38C19.69,14.52,19.63,14.59,19.55,14.59z"/>
</svg>
