<?xml version="1.0" encoding="utf-8"?>
<!-- Generator: Adobe Illustrator 25.4.1, SVG Export Plug-In . SVG Version: 6.00 Build 0)  -->
<svg version="1.1" id="Layer_1" xmlns="http://www.w3.org/2000/svg" xmlns:xlink="http://www.w3.org/1999/xlink" x="0px" y="0px"
	 viewBox="0 0 30.77 24.64" style="enable-background:new 0 0 30.77 24.64;" xml:space="preserve">
<style type="text/css">
	.st0{fill:#0C272D;}
</style>
<path class="st0" d="M26.53,5.53H4.24c-0.58,0-1.05-0.47-1.05-1.05v0c0-0.58,0.47-1.05,1.05-1.05h22.29c0.58,0,1.05,0.47,1.05,1.05
	v0C27.57,5.06,27.11,5.53,26.53,5.53z"/>
<path class="st0" d="M26.53,13.29H4.24c-0.58,0-1.05-0.47-1.05-1.05v0c0-0.58,0.47-1.05,1.05-1.05h22.29c0.58,0,1.05,0.47,1.05,1.05
	v0C27.57,12.82,27.11,13.29,26.53,13.29z"/>
<path class="st0" d="M26.53,21.06H4.24c-0.58,0-1.05-0.47-1.05-1.05v0c0-0.58,0.47-1.05,1.05-1.05h22.29c0.58,0,1.05,0.47,1.05,1.05
	v0C27.57,20.59,27.11,21.06,26.53,21.06z"/>
</svg>
